<?xml version="1.0" encoding="utf-8"?><!DOCTYPE svg PUBLIC "-//W3C//DTD SVG 1.1//EN" "http://www.w3.org/Graphics/SVG/1.1/DTD/svg11.dtd"><svg version="1.1" id="Layer_1" xmlns="http://www.w3.org/2000/svg" xmlns:xlink="http://www.w3.org/1999/xlink" x="0px" y="0px"  width="245px" height="172px" viewBox="0 0 245 172" enable-background="new 0 0 245 172" xml:space="preserve"><g> <g>  <polygon fill="#B74548" stroke="#B74548" stroke-width="3.3122" stroke-miterlimit="10" points="148.5,32.1 95.9,32.1 3.9,72.8    11.9,83.3 44.5,157.5 200.3,157.5 232.8,83.3 240.9,72.8   "/>  <polygon fill="#B74548" stroke="#B74548" stroke-width="3.3122" stroke-miterlimit="10" points="143.7,36 233.3,80.3 231.4,83.4    141.9,38.8   "/>  <polygon fill="#B74548" stroke="#B74548" stroke-width="3.3122" stroke-miterlimit="10" points="101.4,36 11.8,80.3 13.7,83.4    103.2,38.8   "/>  <polygon fill="#DFD6C4" points="100.5,36.5 11.8,80.3 6.5,73.4 97.7,33.3   "/>  <polygon fill="#DFD6C4" points="144.3,36.2 232.8,80.3 238.3,73.4 147,33.2   "/> </g> <polygon fill="none" stroke="#DFD6C4" stroke-width="0.8281" stroke-miterlimit="10" points="199.1,151 45.4,151 16.8,84   122.8,31.4 227.9,84.2  "/> <polygon fill="#DFD6C4" stroke="#B74548" stroke-width="3.3122" stroke-miterlimit="10" points="196.4,167 201.6,154.7 43.3,154.7   48.5,167  "/> <g>  <g>   <path fill="#DFD6C4" d="M45.4,79.7c1.4,1.2,9.7,8.2,11.4,9.6c1.2-1,10.2-8.6,11.3-9.6c0,1.8,0,22.9,0,25c-0.6,0-2.1,0-2.6,0    c0-1.5,0-18.1,0-19.5c-1,0.9-7.3,6.3-8.8,7.6c-1.2-1-7.7-6.7-8.7-7.6c0,1.7,0,17.9,0,19.5c-0.7,0-2,0-2.6,0    C45.4,103.1,45.4,81.4,45.4,79.7z"/>   <path fill="#DFD6C4" d="M72.7,80.2c1.5,0,17.4,0,18.2,0c0,0.7,0,1.8,0,2.5c-1.1,0-14.6,0-15.6,0c0,1.1,0,7.1,0,8.2    c1.1,0,11.9,0,12.9,0c0,0.7,0,2,0,2.5c-1.4,0-11.8,0-12.9,0c0,1.2,0,7.2,0,8.7c1.1,0,14.3,0,15.4,0c0,0.7,0,1.9,0,2.5    c-1.1,0-16.9,0-18,0C72.7,103.4,72.7,81.5,72.7,80.2z"/>   <path fill="#DFD6C4" d="M91.7,104.7c0.4-0.8,12-24.4,12.2-24.8c0.1,0,0.1,0,0.1,0c0.1,0.3,11.4,23.5,12,24.8c-0.6,0-2.5,0-3,0    c-0.3-0.6-2.5-5.3-3-6.2c-0.7,0-11.4,0-12.4,0c-0.3,0.6-2.7,5.5-3,6.2C94.2,104.7,92.3,104.7,91.7,104.7z M103.9,85.4    c-0.7,1.4-4.6,9.5-5,10.5c1,0,8.9,0,10,0C108.6,95.2,104.5,86.7,103.9,85.4z"/>   <path fill="#DFD6C4" d="M116.9,98.6c0.7-0.2,1.8-0.4,2.6-0.7c0.6,2.8,3.2,4.8,6.3,4.8c3.8,0,6.3-2.2,6.6-6.6    c-0.6-0.2-14.6-5.4-15.7-5.8c0-0.5,0-1.2,0-1.9c0-4.3,3.7-8.8,8.9-8.8c4.3,0,8,2.5,9.1,6.5c-0.7,0.2-1.9,0.4-2.6,0.6    c-0.5-2.3-2.8-4.6-6.3-4.6c-3.4,0-6,2.7-6.3,6.3c0.9,0.3,15.1,5.6,15.7,5.8c0.1,0.5,0.1,0.8,0.1,1.9c0,4.7-3.6,9.2-9.2,9.2    C120.8,105.3,117.8,102.2,116.9,98.6z"/>   <path fill="#DFD6C4" d="M138.4,80.2c0.5,0,1.9,0,2.6,0c0,1.3,0,10.3,0,15.9c0,3.4,2.8,6.4,6.4,6.4c3.6,0,6.4-2.9,6.4-6.4    c0-4.6,0-14.8,0-15.9c0.5,0,2.1,0,2.6,0c0,1.2,0,11.9,0,15.8c0,4.9-4,9-9,9c-5,0-9-4.1-9-9C138.4,90.2,138.4,81.3,138.4,80.2z"/>   <path fill="#DFD6C4" d="M173.7,80.2c4.5,0,7.3,3.7,7.3,7.4c0,3.9-2.9,6.6-5.9,7.1c0.4,0.6,5.8,9.1,6.4,9.9c-0.7,0-2.6,0-3.2,0    c-0.5-0.8-5.6-8.8-6.1-9.7c-0.8,0-7.8,0-8.7,0c0,1.1,0,8.9,0,9.7c-0.5,0-2,0-2.6,0c0-1.1,0-23.7,0-24.5    C161.9,80.2,169.2,80.2,173.7,80.2z M173.4,92.4c3,0,4.7-2.2,4.7-4.8c0-2.4-1.8-4.9-4.8-4.9c-3.3,0-8.9,0-9.9,0c0,1,0,8.5,0,9.7    C164.7,92.4,169.8,92.4,173.4,92.4z"/>   <path fill="#DFD6C4" d="M184.1,80.2c1.5,0,17.4,0,18.2,0c0,0.7,0,1.8,0,2.5c-1.1,0-14.6,0-15.6,0c0,1.1,0,7.1,0,8.2    c1.1,0,11.9,0,12.9,0c0,0.7,0,2,0,2.5c-1.4,0-11.8,0-12.9,0c0,1.2,0,7.2,0,8.7c1.1,0,14.3,0,15.4,0c0,0.7,0,1.9,0,2.5    c-1.1,0-16.9,0-18,0C184.1,103.4,184.1,81.5,184.1,80.2z"/>  </g>  <g>   <path fill="#F3F0E8" d="M73.8,120.3c-1.5-1.2-3.6-3.3-8.1-3.3c-5.7,0-10.5,3.9-10.5,8.9c0,4.7,4.7,8.8,10.5,8.8    c3.4,0,6.4-1.6,8.3-3.6c0.6,0.5,6.2,5.2,6.8,5.7c-2.7,2.4-7.9,6-15,6c-11,0-20.5-7.1-20.5-17c0-9.7,9.4-17,20.5-17    c7.3,0,12.2,3.2,14.9,5.5C80.2,114.9,74.6,119.7,73.8,120.3z"/>   <path fill="#F3F0E8" d="M92.3,142.1c-0.5,0-9.9,0-10.6,0c0.3-0.7,13.8-31.8,14-32.4c0.6,0,9.4,0,10.1,0    c0.2,0.5,14.3,31.6,14.6,32.4c-1,0-10,0-10.7,0c-0.3-0.7-2.2-4.9-2.4-5.4c-0.6,0-12.3,0-12.8,0C94.4,137.1,92.5,141.7,92.3,142.1    z M100.8,121.8c-0.2,0.6-2.7,6.5-2.9,6.9c0.5,0,5.5,0,5.9,0C103.6,128.3,101,122.3,100.8,121.8z"/>   <path fill="#F3F0E8" d="M124.3,142.1c0-2.6,0-29.8,0-32.9c2.7,1.5,16.6,9.1,18.4,10.2c1.9-1.1,16.5-9,18.5-10.2    c0,2.3,0,31.5,0,32.9c-1.3,0-8.3,0-9.7,0c0-1.6,0-15.2,0-17.4c-1.5,0.8-7.6,4-8.8,4.6c-1.3-0.6-7.3-3.9-8.7-4.6    c0,1.7,0,15.8,0,17.4C132.6,142.1,125.6,142.1,124.3,142.1z"/>   <path fill="#F3F0E8" d="M168.5,142.1c0-1.7,0-30.5,0-32.4c1.1,0,12.2,0,19.9,0c7.5,0,13.5,5.2,13.5,11.4c0,6-5.8,11.3-13.5,11.3    c-3.8,0-8.6,0-10,0c0,1.6,0,7.7,0,9.7C177.2,142.1,169.5,142.1,168.5,142.1z M178.5,124.4c1.7,0,6.1,0,10,0    c2.1,0,3.8-1.5,3.8-3.3c0-1.8-1.6-3.4-3.8-3.4c-3.8,0-8.7,0-10,0C178.5,119.2,178.5,123.4,178.5,124.4z"/>  </g> </g> <g>     <rect x="97.3" y="13.4" transform="matrix(-0.7071 0.7071 -0.7071 -0.7071 236.1436 -20.8569)" fill="#F3F0E8" stroke="#B74548" stroke-width="2.7602" stroke-miterlimit="10" width="50.2" height="50.2"/>     <rect x="100" y="16.1" transform="matrix(-0.7071 0.7071 -0.7071 -0.7071 236.1427 -20.8606)" fill="none" stroke="#B74548" stroke-width="0.8281" stroke-miterlimit="10" width="44.8" height="44.8"/>  <g id="Your_Icon_13_">   <path fill="#B74548" d="M139.7,49.4l-16.4-28.6l1.8-3.1h-1.3l-1.1,2l-1.1-2h-1.3l1.8,3.1l-16.4,28.6H139.7z M122.6,37.3l6.2,10.7    h-12.3L122.6,37.3z"/>  </g> </g></g></svg>